<?xml version="1.0" standalone="no"?>
<!DOCTYPE svg PUBLIC "-//W3C//DTD SVG 20010904//EN"
 "http://www.w3.org/TR/2001/REC-SVG-20010904/DTD/svg10.dtd">
<svg version="1.0" xmlns="http://www.w3.org/2000/svg"
 width="980.000000pt" height="980.000000pt" viewBox="0 0 980.000000 980.000000"
 preserveAspectRatio="xMidYMid meet">
<metadata>
Created by potrace 1.16, written by Peter Selinger 2001-2019
</metadata>
<g transform="translate(0.000000,980.000000) scale(0.100000,-0.100000)"
fill="#000000" stroke="none">
<path d="M5850 8880 c-23 -42 -56 -285 -89 -642 l-20 -207 -89 -183 c-123
-253 -197 -427 -186 -437 28 -26 432 -166 634 -220 308 -82 700 -128 889 -104
l63 8 19 60 c22 71 35 99 67 144 40 54 66 60 277 59 247 0 362 23 540 107 134
64 371 233 477 342 87 88 102 108 138 185 86 181 -12 350 -230 397 -39 9 -128
10 -310 6 -385 -10 -581 9 -759 75 -125 46 -248 63 -451 63 -166 0 -304 -15
-398 -42 -31 -9 -37 -6 -145 81 -61 50 -150 121 -196 157 -47 36 -113 90 -147
119 -34 28 -65 52 -68 52 -3 0 -10 -9 -16 -20z"/>
<path d="M5346 7133 c-59 -156 -121 -291 -168 -363 -72 -113 -421 -496 -669
-734 -272 -262 -439 -417 -639 -596 -52 -47 -100 -89 -106 -95 -6 -5 -42 -37
-79 -70 -38 -33 -87 -76 -110 -96 -22 -20 -148 -126 -280 -236 -132 -111 -297
-259 -366 -329 -394 -403 -701 -927 -910 -1557 -50 -152 -116 -403 -125 -480
-3 -32 -10 -55 -14 -50 -10 11 -44 143 -74 288 -34 169 -49 324 -44 469 l4
126 -34 0 c-215 0 -422 -485 -422 -986 1 -288 44 -454 207 -779 70 -139 91
-176 177 -305 162 -245 323 -398 484 -461 99 -39 261 -37 317 5 19 14 17 18
-56 93 -250 257 -336 599 -232 926 91 291 270 525 658 864 275 240 602 561
812 797 153 172 208 262 299 494 78 195 112 257 133 237 6 -6 16 -38 22 -70
31 -164 -35 -389 -170 -580 -121 -172 -277 -336 -641 -673 -454 -421 -603
-580 -745 -792 -112 -168 -176 -310 -206 -455 -17 -87 -15 -238 5 -315 19 -74
73 -193 104 -230 l21 -25 1 105 c1 335 96 718 247 998 93 172 194 306 343 453
307 302 737 513 1259 617 126 25 135 28 150 55 38 70 94 150 133 193 l43 47 1
231 c1 274 9 330 74 486 27 63 69 169 95 235 62 162 138 298 205 368 48 48 61
57 91 57 23 0 42 -7 53 -19 31 -34 73 -188 101 -373 l6 -36 77 -6 c228 -18
372 -84 495 -228 92 -107 207 -331 207 -401 0 -21 -19 -63 -76 -169 -20 -37
-75 -83 -134 -113 -87 -44 -153 -56 -295 -54 l-130 2 -7 -144 c-26 -534 -88
-862 -212 -1107 -51 -102 -102 -258 -122 -377 -41 -241 -2 -804 64 -917 19
-33 24 -35 110 -48 110 -18 182 -72 217 -163 l17 -44 266 -7 c147 -5 395 -16
552 -25 157 -9 289 -14 294 -10 5 4 -2 22 -15 41 -47 67 -195 221 -230 239
-20 10 -81 25 -135 34 -182 29 -268 92 -313 227 -58 176 -69 349 -83 1337 -11
798 -11 824 7 837 23 17 37 18 58 2 14 -12 17 -66 22 -523 13 -1204 24 -1435
81 -1617 37 -118 74 -143 262 -176 141 -26 177 -46 278 -159 44 -48 85 -95 93
-103 29 -30 71 -104 71 -125 0 -21 3 -21 253 -20 242 0 254 1 294 23 66 34 77
58 70 151 -10 154 -64 215 -255 286 -159 59 -221 101 -268 181 -61 103 -77
198 -114 644 -84 1035 -86 1962 -4 2287 9 37 57 180 106 318 245 688 294 993
243 1510 -14 137 -19 271 -20 480 l0 290 -195 1 c-213 1 -340 15 -575 65 -227
48 -539 143 -759 233 -50 20 -93 36 -96 36 -4 0 -28 -57 -54 -127z"/>
<path d="M4215 1949 c86 -165 222 -511 346 -879 56 -166 84 -237 96 -242 10
-3 44 -7 76 -7 51 -1 58 1 53 17 -3 9 -21 69 -40 132 -120 399 -316 782 -498
974 l-67 71 34 -66z"/>
</g>
</svg>
